<svg xmlns="http://www.w3.org/2000/svg" width="400" height="400" viewBox="0 0 400 400"><g transform="translate(30, 250)"><rect x="0" y="-80" width="18" height="80" fill="#1D9E75"/><rect x="25" y="-120" width="18" height="120" fill="#1D9E75"/><rect x="50" y="-60" width="18" height="60" fill="#1D9E75"/><rect x="75" y="-140" width="18" height="140" fill="#1D9E75"/><rect x="100" y="-100" width="18" height="100" fill="#1D9E75"/><rect x="125" y="-160" width="18" height="160" fill="#1D9E75"/><line x1="0" y1="0" x2="160" y2="0" stroke="#1D9E75" stroke-width="1"/></g><g transform="translate(210, 50)"><polyline points="0,120 25,90 50,100 75,60 100,70 125,30 150,50" fill="none" stroke="#1D9E75" stroke-width="2" stroke-linecap="round" stroke-linejoin="round"/><circle cx="0" cy="120" r="3" fill="#1D9E75"/><circle cx="25" cy="90" r="3" fill="#1D9E75"/><circle cx="50" cy="100" r="3" fill="#1D9E75"/><circle cx="75" cy="60" r="3" fill="#1D9E75"/><circle cx="100" cy="70" r="3" fill="#1D9E75"/><circle cx="125" cy="30" r="3" fill="#1D9E75"/><circle cx="150" cy="50" r="3" fill="#1D9E75"/><line x1="0" y1="130" x2="155" y2="130" stroke="#1D9E75" stroke-width="1"/><line x1="0" y1="0" x2="0" y2="130" stroke="#1D9E75" stroke-width="1"/></g><g transform="translate(60, 310)"><circle cx="50" cy="50" r="45" fill="none" stroke="#1D9E75" stroke-width="12" stroke-dasharray="85 197"/><circle cx="50" cy="50" r="45" fill="none" stroke="#0F6E56" stroke-width="12" stroke-dasharray="60 197" stroke-dashoffset="-85"/><circle cx="50" cy="50" r="45" fill="none" stroke="#9FE1CB" stroke-width="12" stroke-dasharray="52 197" stroke-dashoffset="-145"/><circle cx="50" cy="50" r="28" fill="#faf9f6"/></g><g transform="translate(220, 260)"><circle cx="10" cy="80" r="3" fill="#1D9E75"/><circle cx="30" cy="60" r="3" fill="#1D9E75"/><circle cx="50" cy="70" r="3" fill="#1D9E75"/><circle cx="70" cy="40" r="3" fill="#1D9E75"/><circle cx="90" cy="50" r="3" fill="#1D9E75"/><circle cx="110" cy="20" r="3" fill="#1D9E75"/><circle cx="20" cy="90" r="3" fill="#1D9E75"/><circle cx="80" cy="30" r="3" fill="#1D9E75"/><circle cx="40" cy="55" r="3" fill="#1D9E75"/><circle cx="100" cy="35" r="3" fill="#1D9E75"/><line x1="5" y1="95" x2="120" y2="10" stroke="#1D9E75" stroke-width="1" stroke-dasharray="4 3"/><line x1="0" y1="100" x2="130" y2="100" stroke="#1D9E75" stroke-width="1"/><line x1="0" y1="0" x2="0" y2="100" stroke="#1D9E75" stroke-width="1"/></g></svg>
